<svg width="104" height="21" viewBox="0 0 104 21" fill="none" xmlns="http://www.w3.org/2000/svg">
<path d="M36.8076 11.252H35.252V17H33.5645V4.20312H35.252V9.8457H36.5703L41.0439 4.20312H43.1445L38.2578 10.4082L43.5049 17H41.4395L36.8076 11.252ZM44.1201 12.1572C44.1201 11.2256 44.3018 10.3877 44.665 9.64355C45.0342 8.89941 45.5439 8.3252 46.1943 7.9209C46.8506 7.5166 47.5977 7.31445 48.4355 7.31445C49.7305 7.31445 50.7764 7.7627 51.5732 8.65918C52.376 9.55566 52.7773 10.748 52.7773 12.2363V12.3506C52.7773 13.2764 52.5986 14.1084 52.2412 14.8467C51.8896 15.5791 51.3828 16.1504 50.7207 16.5605C50.0645 16.9707 49.3086 17.1758 48.4531 17.1758C47.1641 17.1758 46.1182 16.7275 45.3154 15.8311C44.5186 14.9346 44.1201 13.748 44.1201 12.2715V12.1572ZM45.7549 12.3506C45.7549 13.4053 45.998 14.252 46.4844 14.8906C46.9766 15.5293 47.6328 15.8486 48.4531 15.8486C49.2793 15.8486 49.9355 15.5264 50.4219 14.8818C50.9082 14.2314 51.1514 13.3232 51.1514 12.1572C51.1514 11.1143 50.9023 10.2705 50.4043 9.62598C49.9121 8.97559 49.2559 8.65039 48.4355 8.65039C47.6328 8.65039 46.9854 8.96973 46.4932 9.6084C46.001 10.2471 45.7549 11.1611 45.7549 12.3506ZM62.8496 12.3506C62.8496 13.7979 62.5186 14.9639 61.8564 15.8486C61.1943 16.7334 60.2979 17.1758 59.167 17.1758C58.0127 17.1758 57.1045 16.8096 56.4424 16.0771V20.6562H54.8164V7.49023H56.3018L56.3809 8.54492C57.043 7.72461 57.9629 7.31445 59.1406 7.31445C60.2832 7.31445 61.1855 7.74512 61.8477 8.60645C62.5156 9.46777 62.8496 10.666 62.8496 12.2012V12.3506ZM61.2236 12.166C61.2236 11.0938 60.9951 10.2471 60.5381 9.62598C60.0811 9.00488 59.4541 8.69434 58.6572 8.69434C57.6729 8.69434 56.9346 9.13086 56.4424 10.0039V14.5479C56.9287 15.415 57.6729 15.8486 58.6748 15.8486C59.4541 15.8486 60.0723 15.541 60.5293 14.9258C60.9922 14.3047 61.2236 13.3848 61.2236 12.166ZM70.1533 10.0918C70.1533 9.64648 69.9834 9.29492 69.6436 9.03711C69.3037 8.77344 68.8379 8.6416 68.2461 8.6416C67.6719 8.6416 67.1914 8.79102 66.8047 9.08984C66.4238 9.38867 66.2334 9.74023 66.2334 10.1445H64.6162C64.6162 9.31836 64.9619 8.6416 65.6533 8.11426C66.3447 7.58691 67.209 7.32324 68.2461 7.32324C69.3594 7.32324 70.2266 7.56348 70.8477 8.04395C71.4688 8.51855 71.7793 9.19824 71.7793 10.083C71.7793 10.5107 71.6504 10.9033 71.3926 11.2607C71.1348 11.6182 70.7686 11.9023 70.2939 12.1133C71.4014 12.4883 71.9551 13.2266 71.9551 14.3281C71.9551 15.2012 71.6182 15.8926 70.9443 16.4023C70.2705 16.9121 69.3711 17.167 68.2461 17.167C67.1504 17.167 66.2451 16.9004 65.5303 16.3672C64.8213 15.8281 64.4668 15.1016 64.4668 14.1875H66.084C66.084 14.6504 66.2891 15.0488 66.6992 15.3828C67.1152 15.7109 67.6309 15.875 68.2461 15.875C68.8672 15.875 69.3682 15.7314 69.749 15.4443C70.1299 15.1572 70.3203 14.7852 70.3203 14.3281C70.3203 13.7949 70.1592 13.4141 69.8369 13.1855C69.5205 12.9512 69.0254 12.834 68.3516 12.834H66.7256V11.4629H68.4922C69.5996 11.4336 70.1533 10.9766 70.1533 10.0918ZM80.2168 7.49023H81.8428V17H80.2168V10.0654L75.8311 17H74.2051V7.49023H75.8311V14.4336L80.2168 7.49023ZM92.2227 17H90.5967V12.9395H86.2285V17H84.5938V7.49023H86.2285V11.6123H90.5967V7.49023H92.2227V17ZM100.713 17C100.619 16.8125 100.543 16.4785 100.484 15.998C99.7285 16.7832 98.8262 17.1758 97.7773 17.1758C96.8398 17.1758 96.0693 16.9121 95.4658 16.3848C94.8682 15.8516 94.5693 15.1777 94.5693 14.3633C94.5693 13.373 94.9443 12.6055 95.6943 12.0605C96.4502 11.5098 97.5107 11.2344 98.876 11.2344H100.458V10.4873C100.458 9.91895 100.288 9.46777 99.9482 9.13379C99.6084 8.79395 99.1074 8.62402 98.4453 8.62402C97.8652 8.62402 97.3789 8.77051 96.9863 9.06348C96.5938 9.35645 96.3975 9.71094 96.3975 10.127H94.7627C94.7627 9.65234 94.9297 9.19531 95.2637 8.75586C95.6035 8.31055 96.0605 7.95898 96.6348 7.70117C97.2148 7.44336 97.8506 7.31445 98.542 7.31445C99.6377 7.31445 100.496 7.58984 101.117 8.14062C101.738 8.68555 102.061 9.43848 102.084 10.3994V14.7764C102.084 15.6494 102.195 16.3438 102.418 16.8594V17H100.713ZM98.0146 15.7607C98.5244 15.7607 99.0078 15.6289 99.4648 15.3652C99.9219 15.1016 100.253 14.7588 100.458 14.3369V12.3857H99.1836C97.1914 12.3857 96.1953 12.9688 96.1953 14.1348C96.1953 14.6445 96.3652 15.043 96.7051 15.3301C97.0449 15.6172 97.4814 15.7607 98.0146 15.7607Z" fill="white"/>
<path d="M0.666992 1.66675L1.46699 4.33341M1.46699 4.33341L4.66699 15.0001H19.3337V7.00008C19.3337 5.52732 18.1398 4.33341 16.667 4.33341H1.46699ZM16.667 20.3334C15.9306 20.3334 15.3337 19.7365 15.3337 19.0001C15.3337 18.2637 15.9306 17.6667 16.667 17.6667C17.4034 17.6667 18.0003 18.2637 18.0003 19.0001C18.0003 19.7365 17.4034 20.3334 16.667 20.3334ZM6.00033 19.0001C6.00033 18.2637 6.59728 17.6667 7.33366 17.6667C8.07004 17.6667 8.66699 18.2637 8.66699 19.0001C8.66699 19.7365 8.07004 20.3334 7.33366 20.3334C6.59728 20.3334 6.00033 19.7365 6.00033 19.0001Z" stroke="white"/>
<circle cx="18" cy="5" r="5" fill="#FF5028"/>
</svg>
