<svg width="48" height="48" viewBox="0 0 48 48" fill="none" xmlns="http://www.w3.org/2000/svg">
<path d="M46.546 22.9602C46.363 23.6413 46.3634 24.3586 46.547 25.0395L47.3975 28.1928C47.7702 29.5749 47.3761 31.0508 46.3639 32.0629L44.0621 34.3646C43.5671 34.8596 43.2107 35.4757 43.0285 36.1515L42.1724 39.3256C41.8015 40.7008 40.7273 41.7751 39.352 42.146L36.1781 43.002C35.5023 43.1843 34.8862 43.5407 34.3913 44.0355L32.0628 46.364C31.0506 47.3761 29.5748 47.7702 28.1928 47.3975L25.0416 46.5476C24.3594 46.3636 23.6406 46.3636 22.9584 46.5476L19.8072 47.3975C18.4252 47.7702 16.9494 47.3761 15.9372 46.364L13.6087 44.0355C13.1138 43.5407 12.4977 43.1843 11.8219 43.002L8.65793 42.1487C7.27736 41.7763 6.20056 40.6953 5.83355 39.3133L4.99787 36.1665C4.81589 35.4812 4.45503 34.8566 3.95224 34.3567L1.64611 32.0636C0.628201 31.0515 0.230686 29.5715 0.604478 28.1856L1.45299 25.0395C1.63662 24.3586 1.63698 23.6413 1.45405 22.9602L0.601452 19.7861C0.22947 18.4012 0.627255 16.9231 1.64407 15.912L3.95232 13.6167C4.45506 13.1168 4.81589 12.4923 4.99786 11.8071L5.83354 8.66035C6.20055 7.27836 7.27735 6.19739 8.65791 5.82504L11.8277 4.9701C12.4998 4.78884 13.113 4.43532 13.6066 3.94449L15.9452 1.61894C16.9535 0.616361 18.4182 0.224369 19.7924 0.589333L22.9733 1.4341C23.6461 1.61278 24.3539 1.61278 25.0267 1.4341L28.2076 0.589333C29.5819 0.224369 31.0465 0.61636 32.0548 1.61894L34.3934 3.94449C34.8871 4.43532 35.5002 4.78884 36.1723 4.97011L39.352 5.82772C40.7273 6.19864 41.8015 7.27287 42.1724 8.64809L43.0285 11.822C43.2107 12.4977 43.5671 13.1138 44.062 13.6088L46.3659 15.9127C47.377 16.9239 47.7714 18.3978 47.4005 19.7788L46.546 22.9602Z" fill="#F0F0F0"/>
</svg>
