<svg width="20" height="20" viewBox="0 0 20 20" fill="none" xmlns="http://www.w3.org/2000/svg">
<path d="M0.666992 14L0.313439 13.6464L0.166992 13.7929V14H0.666992ZM14.0003 0.666626L14.3539 0.313073C14.1586 0.11781 13.842 0.11781 13.6468 0.313073L14.0003 0.666626ZM19.3337 5.99996L19.6872 6.35351C19.8825 6.15825 19.8825 5.84167 19.6872 5.64641L19.3337 5.99996ZM6.00033 19.3333V19.8333H6.20743L6.35388 19.6868L6.00033 19.3333ZM0.666992 19.3333H0.166992C0.166992 19.6094 0.39085 19.8333 0.666992 19.8333L0.666992 19.3333ZM1.02055 14.3535L14.3539 1.02018L13.6468 0.313073L0.313439 13.6464L1.02055 14.3535ZM13.6468 1.02018L18.9801 6.35351L19.6872 5.64641L14.3539 0.313073L13.6468 1.02018ZM18.9801 5.64641L5.64677 18.9797L6.35388 19.6868L19.6872 6.35351L18.9801 5.64641ZM6.00033 18.8333H0.666992V19.8333H6.00033V18.8333ZM1.16699 19.3333V14H0.166992V19.3333H1.16699Z" fill="#2F80ED"/>
</svg>
