<svg width="22" height="21" viewBox="0 0 22 21" fill="none" xmlns="http://www.w3.org/2000/svg">
<path d="M1.66699 0.666626L2.46699 3.33329M2.46699 3.33329L5.66699 14H20.3337V5.99996C20.3337 4.5272 19.1398 3.33329 17.667 3.33329H2.46699ZM17.667 19.3333C16.9306 19.3333 16.3337 18.7363 16.3337 18C16.3337 17.2636 16.9306 16.6666 17.667 16.6666C18.4034 16.6666 19.0003 17.2636 19.0003 18C19.0003 18.7363 18.4034 19.3333 17.667 19.3333ZM7.00033 18C7.00033 17.2636 7.59728 16.6666 8.33366 16.6666C9.07004 16.6666 9.66699 17.2636 9.66699 18C9.66699 18.7363 9.07004 19.3333 8.33366 19.3333C7.59728 19.3333 7.00033 18.7363 7.00033 18Z" stroke="#828282" stroke-width="1.5"/>
</svg>
