<svg width="22" height="22" viewBox="0 0 22 22" fill="none" xmlns="http://www.w3.org/2000/svg">
<path d="M11.0003 1.66663L11.4884 1.09718C11.2076 0.85644 10.7931 0.85644 10.5122 1.09718L11.0003 1.66663ZM1.66699 9.66663L1.1789 9.09718L0.916992 9.32167V9.66663H1.66699ZM8.33366 20.3333V21.0833C8.74787 21.0833 9.08366 20.7475 9.08366 20.3333H8.33366ZM13.667 20.3333H12.917C12.917 20.7475 13.2528 21.0833 13.667 21.0833V20.3333ZM20.3337 9.66663H21.0837V9.32167L20.8218 9.09718L20.3337 9.66663ZM3.00033 21.0833H8.33366V19.5833H3.00033V21.0833ZM20.8218 9.09718L11.4884 1.09718L10.5122 2.23607L19.8456 10.2361L20.8218 9.09718ZM10.5122 1.09718L1.1789 9.09718L2.15509 10.2361L11.4884 2.23607L10.5122 1.09718ZM9.08366 20.3333V16.3333H7.58366V20.3333H9.08366ZM12.917 16.3333V20.3333H14.417V16.3333H12.917ZM13.667 21.0833H19.0003V19.5833H13.667V21.0833ZM21.0837 19V9.66663H19.5837V19H21.0837ZM0.916992 9.66663V19H2.41699V9.66663H0.916992ZM11.0003 14.4166C12.0589 14.4166 12.917 15.2747 12.917 16.3333H14.417C14.417 14.4463 12.8873 12.9166 11.0003 12.9166V14.4166ZM11.0003 12.9166C9.11335 12.9166 7.58366 14.4463 7.58366 16.3333H9.08366C9.08366 15.2747 9.94178 14.4166 11.0003 14.4166V12.9166ZM19.0003 21.0833C20.1509 21.0833 21.0837 20.1506 21.0837 19H19.5837C19.5837 19.3221 19.3225 19.5833 19.0003 19.5833V21.0833ZM3.00033 19.5833C2.67816 19.5833 2.41699 19.3221 2.41699 19H0.916992C0.916992 20.1506 1.84973 21.0833 3.00033 21.0833V19.5833Z" fill="#828282"/>
</svg>
