<svg width="22" height="22" viewBox="0 0 22 22" fill="none" xmlns="http://www.w3.org/2000/svg">
<path d="M4.91699 18.3333V19.0833H6.41699V18.3333H4.91699ZM15.5837 18.3333V19.0833H17.0837V18.3333H15.5837ZM6.41699 18.3333V17.6664H4.91699V18.3333H6.41699ZM9.66699 14.4166H12.3337V12.9166H9.66699V14.4166ZM15.5837 17.6664V18.3333H17.0837V17.6664H15.5837ZM12.3337 14.4166C14.1286 14.4166 15.5837 15.8716 15.5837 17.6664H17.0837C17.0837 15.043 14.957 12.9166 12.3337 12.9166V14.4166ZM6.41699 17.6664C6.41699 15.8716 7.87202 14.4166 9.66699 14.4166V12.9166C7.04369 12.9166 4.91699 15.043 4.91699 17.6664H6.41699ZM11.0003 4.91663C9.11335 4.91663 7.58366 6.44632 7.58366 8.33329H9.08366C9.08366 7.27475 9.94178 6.41663 11.0003 6.41663V4.91663ZM14.417 8.33329C14.417 6.44632 12.8873 4.91663 11.0003 4.91663V6.41663C12.0589 6.41663 12.917 7.27475 12.917 8.33329H14.417ZM11.0003 11.75C12.8873 11.75 14.417 10.2203 14.417 8.33329H12.917C12.917 9.39184 12.0589 10.25 11.0003 10.25V11.75ZM11.0003 10.25C9.94178 10.25 9.08366 9.39184 9.08366 8.33329H7.58366C7.58366 10.2203 9.11335 11.75 11.0003 11.75V10.25ZM11.0003 19.5833C6.25988 19.5833 2.41699 15.7404 2.41699 11H0.916992C0.916992 16.5688 5.43145 21.0833 11.0003 21.0833V19.5833ZM19.5837 11C19.5837 15.7404 15.7408 19.5833 11.0003 19.5833V21.0833C16.5692 21.0833 21.0837 16.5688 21.0837 11H19.5837ZM11.0003 2.41663C15.7408 2.41663 19.5837 6.25951 19.5837 11H21.0837C21.0837 5.43109 16.5692 0.916626 11.0003 0.916626V2.41663ZM11.0003 0.916626C5.43145 0.916626 0.916992 5.43109 0.916992 11H2.41699C2.41699 6.25951 6.25988 2.41663 11.0003 2.41663V0.916626Z" fill="#FF5028"/>
</svg>
